<?xml version="1.0" standalone="no"?>
<!DOCTYPE svg PUBLIC "-//W3C//DTD SVG 1.1//EN" "http://www.w3.org/Graphics/SVG/1.1/DTD/svg11.dtd">
<svg xmlns="http://www.w3.org/2000/svg">
<metadata>Copyright (C) 2020 by original authors @ fontello.com</metadata>
<defs>
<font id="inf-icons" horiz-adv-x="1000" >
<font-face font-family="inf-icons" font-weight="400" font-stretch="normal" units-per-em="1000" ascent="850" descent="-150" />
<missing-glyph horiz-adv-x="1000" />
<glyph glyph-name="key" unicode="&#xe800;" d="M464 564q0 45-31 76t-76 31-76-31-31-76q0-23 11-46-23 11-47 11-44 0-76-32t-31-76 31-75 76-32 76 32 31 75q0 24-10 47 23-11 46-11 45 0 76 31t31 76z m475-393q0-9-27-36t-37-28q-5 0-16 9t-20 19-22 22-13 14l-54-53 123-123q15-16 15-38 0-23-21-45t-46-22q-22 0-37 16l-375 374q-98-73-204-73-91 0-148 57t-57 149q0 89 53 174t138 139 175 53q91 0 148-58t57-148q0-105-73-203l198-199 54 54q-2 2-14 14t-23 21-18 21-9 15q0 10 27 37t37 28q7 0 13-6 3-3 26-25t45-44 49-48 40-44 16-23z" horiz-adv-x="1000" />

<glyph glyph-name="inf-search" unicode="&#xe801;" d="M352 838c-272-53-428-366-310-620 112-238 399-330 631-200l41 23 98-95c101-100 134-115 170-78 35 34 20 61-82 164l-100 100 28 43c73 112 81 285 20 417-88 186-290 287-496 246z m227-144c66-31 131-96 161-162 35-76 33-197-6-270-34-66-84-115-152-150-73-38-203-37-281 4-130 68-203 222-170 357 16 66 76 154 127 189 104 69 217 81 321 32z" horiz-adv-x="1000" />

<glyph glyph-name="inf-mail" unicode="&#xe802;" d="M96 815c-20-11-49-37-63-58-23-35-26-72-30-379-6-374 0-416 66-479l44-42 484-4c538-4 545-3 597 84 25 42 28 73 28 419l0 372-54 54-54 54-490 0c-398-1-499-5-528-21z m710-243c-102-76-188-139-192-139-6 0-325 239-356 267-8 6 155 11 360 11l372 0-184-139z m291-248c0-259-3-309-22-327-18-19-79-22-451-22-271 0-442 6-459 14-25 14-26 32-26 319 0 168 4 306 8 306 4 0 106-75 227-167 119-91 227-166 240-166 12 0 125 77 250 172 124 96 228 173 230 173 2 2 3-136 3-302z" horiz-adv-x="1236" />

<glyph glyph-name="inf-alert" unicode="&#xe803;" d="M390 838c-102-17-200-95-245-196-21-47-27-81-30-208l-5-151-43-45c-55-59-69-89-60-124 12-48 45-62 146-62l92 0 8-36c11-54 46-105 89-131 46-29 159-33 209-7 45 23 89 85 97 134l7 40 94 0c86 0 97 3 122 28 43 42 36 78-28 145l-56 60 0 135c0 170-18 231-93 312-80 89-186 126-304 106z m147-117c53-23 89-56 118-113 21-38 25-67 28-209l5-165 32-31c18-17 33-35 33-41 0-4-137-9-306-9l-305 0 29 32c46 47 54 82 54 234 0 149 11 197 59 250 59 63 170 86 253 52z" horiz-adv-x="899" />

<glyph glyph-name="inf-angle-down" unicode="&#xe804;" d="M83 788c-49-51-62-81-62-155 0-89 15-111 258-402 140-168 272-319 291-334 36-28 147-34 205-13 48 19 538 606 565 679 32 85 9 170-68 234l-63 53-532 0-532 0-62-62z m819-417c-115-136-215-242-223-240-11 6-279 321-379 449-28 34-6 36 389 36l420 0-207-245z" horiz-adv-x="1362" />

<glyph glyph-name="inf-settings" unicode="&#xe805;" d="M404 839c-29-14-44-46-44-92 0-20-5-39-9-42-5-3-26 8-44 26-28 25-42 31-71 31-31 0-42-6-84-45-27-26-55-59-61-74-15-36-3-80 32-113 34-33 23-48-37-48-34 0-47-5-64-22-20-20-22-27-22-109 0-87 0-87 27-110 21-17 36-23 70-23 23 0 45-4 49-9 2-5-10-25-28-43-57-60-42-121 52-197 48-39 91-37 136 7 19 19 39 31 44 28 5-3 10-25 10-49 0-35 4-49 24-71 23-25 31-28 91-32 109-7 157 28 157 115 0 41 10 45 36 17 28-30 73-49 104-42 14 4 47 29 78 62 47 49 54 59 54 91 0 29-7 43-32 71-18 18-29 38-25 44 2 4 25 8 49 8 37 0 48 5 70 26 24 24 25 29 25 104 0 73-1 82-23 106-20 25-28 28-70 28-58 0-72 18-37 47 29 23 43 50 43 80 0 31-14 54-52 95-64 68-113 76-167 28-18-17-38-31-44-31-5 0-9 15-9 36 0 46-21 90-49 103-29 14-152 13-179-1z m116-135c12-103 121-150 205-86 29 22 31 22 47 8 17-15 17-15-8-44-74-84-17-206 97-206 22 0 25-2 25-26 0-25-2-26-36-26-48 0-83-23-104-66-27-54-21-100 19-142 18-19 18-20 3-38-16-17-17-17-35-1-43 39-97 48-150 22-32-15-65-72-65-111 0-21-4-24-27-24-24 0-26 3-26 33 0 69-51 116-124 116-35 0-48-4-73-27-30-26-32-27-49-12-15 15-15 16 10 50 61 84 9 200-90 200-31 0-34 1-34 26 0 24 3 26 28 26 110 0 162 131 85 216-16 18-16 19 0 34 18 15 19 15 45-7 38-31 79-37 128-19 49 18 74 55 74 108 0 35 2 37 25 37 23 0 26-3 30-41z m-103-191c-15-6-39-25-55-43-95-109-33-275 109-293 54-6 99 8 140 44 41 35 56 72 56 133 0 106-67 171-173 171-28 0-63-6-77-12z m123-115c30-30 28-66-6-95-30-26-33-27-64-14-50 18-58 86-12 117 28 20 57 18 82-8z" horiz-adv-x="991" />

<glyph glyph-name="inf-banking" unicode="&#xe806;" d="M255 752c-243-104-268-122-247-170 6-14 36-38 68-56 30-17 57-35 59-39 3-4-22-18-56-31-44-17-64-31-71-49-14-40 4-66 75-106l63-36-68-30c-71-32-90-60-69-99 13-25 466-286 496-286 36 0 484 261 497 289 18 39-3 69-67 96-31 12-55 26-54 31 2 4 27 22 57 41 65 39 77 56 68 93-5 22-20 33-67 54-33 14-60 28-60 32 0 3 19 18 43 31 83 45 106 84 76 123-16 21-463 210-495 210-12 0-124-44-248-98z m393-87c68-30 134-57 144-61 16-5-11-26-129-92-83-48-153-86-156-86-18 0-295 165-288 173 12 12 269 120 287 120 8 0 72-25 142-54z m-265-315c53-31 106-56 122-56 16 0 71 25 126 57 93 54 98 56 132 43 19-7 35-16 35-20 0-4-66-44-146-90l-146-82-147 83c-81 47-147 87-147 90 0 6 48 28 66 30 6 0 52-25 105-55z m1-222c52-30 107-56 120-56 14 0 70 26 124 57 94 52 101 55 135 44 19-6 35-15 35-19 0-4-66-44-145-90l-147-84-146 84c-81 47-148 87-148 91 0 6 47 26 66 27 6 1 53-24 106-54z" horiz-adv-x="1010" />

<glyph glyph-name="inf-help" unicode="&#xe807;" d="M415 840c-172-27-324-149-386-308-33-85-38-238-10-329 91-300 433-440 712-292 71 38 167 136 203 207 74 145 74 318 2 461-32 62-113 151-174 189-94 60-237 90-347 72z m144-110c121-23 235-113 289-227 23-50 27-71 27-153 0-85-3-102-31-160-39-83-106-150-192-192-60-30-75-33-157-33-80 0-97 4-157 32-87 41-151 101-188 177-77 155-49 327 71 447 52 53 105 83 182 104 64 17 90 18 156 5z m-145-99c-54-24-86-71-92-132-5-57 8-79 48-79 33 0 45 13 55 57 12 60 74 82 113 40 40-42 19-100-41-112-52-12-57-21-57-104 0-87 8-101 57-101 38 0 53 21 53 74 0 20 5 36 11 36 24 0 72 45 90 84 71 157-80 308-237 237z" horiz-adv-x="990" />

<glyph glyph-name="inf-phone" unicode="&#xe808;" d="M133 832c-52-25-107-90-123-146-30-103 19-328 96-457 106-173 269-298 459-348 218-59 348-26 410 103 24 48 27 63 22 120-2 36-11 71-18 78-18 17-338 89-359 81-9-4-26-22-37-42l-21-34-30 18c-50 27-145 120-173 167-13 24-23 44-21 46 2 2 17 11 35 20 17 9 34 24 38 35 7 23-67 344-83 360-21 21-150 20-195-1z m132-182c12-50 22-100 24-110 2-12-10-25-36-39-52-29-55-57-15-139 36-73 94-147 158-200 53-44 179-107 205-102 15 3 55 51 64 78 2 6 47 0 115-16 121-28 123-30 95-89-25-54-57-69-142-67-213 5-441 150-542 345-50 97-70 164-78 261-5 68-4 78 18 110 24 36 59 59 93 59 19 0 24-11 41-91z" horiz-adv-x="1000" />

<glyph glyph-name="inf-sign-out" unicode="&#xe809;" d="M20 829c-18-20-20-70-20-478 0-292 5-464 12-479 10-20 25-22 114-22 114 0 130 8 130 64 0 48-19 64-72 64l-44 0 0 366 0 367 32 0c51 0 84 30 84 75 0 52-23 64-132 64-68 0-89-5-104-21z m757-178c-36-21-26-81 25-153 26-35 47-68 47-71 0-4-108-7-242-7-273 0-293-5-293-76 0-22 7-43 15-49 7-4 128-11 268-15l253-6-52-69c-77-101-72-169 11-169 34 0 47 13 143 142 65 87 106 152 106 170 0 25-172 286-202 307-18 12-56 10-79-4z" horiz-adv-x="1058" />

<glyph glyph-name="inf-terms" unicode="&#xe80a;" d="M189 824c-27-21-31-31-31-73 0-46-1-46-34-52-51-8-90-41-109-90-14-36-16-84-13-350 3-294 4-310 24-336 11-15 32-36 47-47 27-20 39-21 387-21 349 0 361 1 388 21 14 11 36 32 47 47 20 26 21 42 24 343 3 300 2 318-17 355-21 41-74 81-107 81-17 0-21 7-26 46-4 37-12 54-35 74l-31 28-242 0-241 0-31-26z m465-177l0-94-194 0-193 0 0 94 0 94 193 0 194 0 0-94z m-496-95c0-50 13-74 50-93 23-12 72-15 252-15 279 0 293 5 310 111 7 39 8 40 25 24 15-16 17-45 17-299 0-269-1-283-20-301-19-19-33-20-332-20-299 0-312 1-331 20-19 18-20 32-20 295 0 232 2 278 16 297 23 33 33 27 33-19z" horiz-adv-x="921" />

<glyph glyph-name="inf-arrow-right" unicode="&#xe80b;" d="M36 830c-43-42-16-95 136-283l154-192-139-164c-75-90-151-180-164-203-48-72 2-153 77-130 43 15 408 458 408 497 0 28-321 451-367 482-28 20-84 15-105-7z" horiz-adv-x="508" />

<glyph glyph-name="inf-group" unicode="&#xe80c;" d="M290 821c-85-42-122-112-115-212 8-129 91-206 220-206 87 0 145 31 195 105 42 60 36 183-10 247-64 91-185 119-290 66z m181-137c16-18 29-41 29-51 0-40-32-84-70-100-47-20-96 1-126 55-16 29-16 38 0 71 21 45 72 75 111 65 14-4 39-23 56-40z m254-92c-80-67-82-192-1-260 112-94 276-23 276 118 0 115-62 176-176 176-44 0-69-8-99-34z m-463-312c-137-51-233-175-255-326-11-69 11-104 65-104 39 0 53 25 64 103 10 80 64 152 144 193 86 42 145 42 232-1 83-42 130-107 145-203 11-72 27-92 77-92 52 0 65 54 38 154-11 47-19 91-15 97 4 6 27 15 51 19 79 16 179-62 179-140 0-67 67-101 110-56 25 23 27 40 7 116-41 164-232 251-389 180-49-23-57-24-72-7-9 12-40 33-69 48-69 35-241 46-312 19z" horiz-adv-x="1118" />

<glyph glyph-name="inf-campaign" unicode="&#xe80d;" d="M33 817l-33-33 0-160c0-151 1-160 27-191 28-32 29-32 187-35l159-4 38 33 38 34 0 162 0 161-38 33-36 33-154 0-155 0-33-33z m297-194l0-102-108 0-108 0 0 102 0 102 108 0 108 0 0-102z m259 194l-38-33 0-161 0-162 38-33c36-32 37-32 179-32 150 0 197 11 221 55 5 13 11 92 11 177l0 156-33 33-33 33-154 0-155 0-36-33z m297-194l0-102-108 0-107 0 0 102 0 102 107 0 108 0 0-102z m-855-362c-31-31-31-34-31-192 0-157 0-160 30-190 29-29 33-29 188-29 92 0 168 6 182 12 39 21 55 80 55 210 0 129-16 188-55 209-14 7-90 12-181 12l-158 0-30-32z m299-189l0-108-108 0-108 0 0 108 0 108 108 0 108 0 0-108z m269 209c-39-23-53-82-53-215 0-133 13-181 55-205 13-5 95-11 181-11l159 0 30 35c28 34 29 40 29 187 0 146-1 152-29 186l-30 35-160 0c-93 0-171-5-182-12z m287-209l0-108-108 0-107 0 0 108 0 108 107 0 108 0 0-108z" horiz-adv-x="1000" />

<glyph glyph-name="inf-history" unicode="&#xe80e;" d="M47 829c-26-25-26-24 0-162 31-163 32-164 129-154 44 5 116 16 160 25 72 15 79 19 82 53 7 58-19 79-89 71l-59-5 66 30c135 64 309 34 418-71 101-98 141-223 108-348-37-146-144-253-284-286-175-43-373 59-446 229-36 84-110 97-128 23-12-48 62-184 137-252 31-31 92-72 133-90 66-32 91-35 213-35 125 0 146 3 220 38 101 46 202 148 251 254 49 105 50 275 4 392-38 93-147 210-242 255-152 74-349 66-488-18l-71-42-10 43c-11 64-64 89-104 50z m479-367l0-112-118 0c-117 0-118 0-118-33l0-33 151 0 151 0 0 145 0 145-33 0c-33 0-33-2-33-112z" horiz-adv-x="1000" />

<glyph glyph-name="inf-home" unicode="&#xe80f;" d="M224 651c-108-110-204-212-211-226-19-37-17-504 3-529 33-44 59-46 442-46l378 0 34 34 35 35 0 241c0 151-5 248-13 265-7 14-103 116-211 226-152 153-206 199-229 199-22 0-76-46-228-199z m403-113l171-170 0-199 0-200-72 0-71 0 0 182c0 126-5 187-14 197-21 20-356 20-377 0-9-10-14-71-14-197l0-182-71 0-72 0 0 199 0 200 169 169c94 94 173 170 176 170 3 0 83-76 175-169z m-79-426l0-143-96 0-95 0 0 143 0 143 95 0 96 0 0-143z" horiz-adv-x="905" />

<glyph glyph-name="inf-delivery" unicode="&#xe810;" d="M35 814l-36-35 3-325c4-318 4-326 32-353 19-22 26-44 26-83 0-99 69-168 169-168 99 0 169 69 169 166l0 51 162 0 163 0 0-51c0-97 70-166 169-166 98 0 168 69 168 166 0 28 5 51 11 51 6 0 21 8 30 19 16 15 20 47 20 157l0 137-139 111-139 111 0 87c0 76-3 91-31 124l-31 37-356 0-355 0-35-36z m688-356l0-271-301 0-301 0 0 271 0 272 301 0 301 0 0-272z m205-86c71-58 72-58 72-121l0-64-78 0-79 0 0 121c0 66 3 120 6 120 4 0 40-25 79-56z" horiz-adv-x="1120" />

<glyph glyph-name="inf-calendar" unicode="&#xe811;" d="M214 830c-11-10-18-32-18-47 0-25-6-29-54-35-29-3-66-18-81-29-60-47-61-57-61-425 0-319 1-343 22-376 40-67 50-68 429-68 379 0 389 1 429 68 21 33 22 57 22 387l0 352-41 42c-34 34-52 42-98 49-52 6-56 10-56 37 0 43-36 72-74 59-24-9-31-18-33-52l-3-40-147 0-146 0 0 38c0 56-54 81-90 40z m-18-225c0-48 41-80 81-61 23 10 27 20 27 56l0 44 147 0 147 0 0-37c0-38 23-72 47-72 32 0 62 35 62 72 0 42 21 48 63 19 21-15 24-25 24-119l0-103-343 0-342 0 0 103c0 94 2 104 24 119 41 29 63 23 63-21z m598-465c0-106-5-160-14-168-18-19-640-19-658 0-9 8-13 62-13 168l0 156 342 0 343 0 0-156z m-374 55c-13-10-19-25-16-51l4-39 134-3c144-3 165 3 165 48 0 45-37 59-158 59-73 0-116-5-129-14z" horiz-adv-x="902" />

<glyph glyph-name="inf-ccard" unicode="&#xe812;" d="M112 840c-55-20-90-55-105-107-6-21-7-135-6-401l3-374 21-34c15-25 32-40 59-54l38-20 608 0 607 0 35 20c25 13 42 30 57 54l21 34 3 377c1 259 0 385-6 404-10 34-44 72-81 92l-29 16-599 1c-488 1-605 0-626-8z m1225-39c54-25 81-67 81-125l0-32-691 0-691 0 0 32c0 58 27 100 81 125 27 13 59 14 610 14 551 0 583-1 610-14z m81-603c0-241-1-249-54-289l-26-20-602-2c-580-2-602-2-628 12-33 16-48 33-62 67-8 21-10 63-10 235l0 209 691 0 691 0 0-212z m-1212 28l0-21 188 0 188 0 0 21 0 21-188 0-188 0 0-21z m546 0l0-21 106 0 107 0 0 21 0 21-107 0-106 0 0-21z m-546-142l0-21 110 0 110 0 0 21 0 21-110 0-110 0 0-21z" horiz-adv-x="1454" />

<glyph glyph-name="inf-bank" unicode="&#xe813;" d="M274 687c-146-89-267-166-270-170-11-16 1-40 20-45 13-2 18-6 18-14 0-11 15-12 503-12 499 0 503 0 503 12 0 8 4 13 11 13 7 0 16 5 22 12 24 25 15 33-265 204-145 90-268 163-271 163-3 0-126-73-271-163z m-141-472l0-220-43 0-42 0 0-25 0-24 494 0 494 0 0 24 0 25-42 0-42 0 0 220 0 219-78 0-79 0 0-219 0-220-87 0-87 0 0 220 0 219-79 0-78 0 0-219 0-220-87 0-88 0 0 220 0 219-78 0-78 0 0-219z m-96-322c-7-20-13-37-13-39 0-2 235-4 522-4 415 0 521 2 519 7-2 4-10 22-17 40l-14 31-492 0-492 0-13-35z" horiz-adv-x="1090" />

<glyph glyph-name="inf-larrow-down" unicode="&#xe814;" d="M42 808c-24-21-42-74-42-116 0-68 58-126 458-460 355-298 474-382 532-382 57 0 181 87 523 363 405 327 448 369 455 453 11 100-42 158-144 158-37 0-206-119-448-313l-386-311-390 324c-400 334-474 371-558 284z" horiz-adv-x="1974" />

<glyph glyph-name="inf-delete" unicode="&#xe815;" d="M363 833c-44-24-68-71-68-132l0-51-131 0c-116 0-134-2-148-17-18-20-20-43-6-70 7-13 20-18 47-18l37 0 3-292c3-276 4-295 23-327 11-18 33-43 51-54 31-22 37-22 329-22 292 0 298 0 329 22 17 11 41 33 51 47 19 26 20 40 23 327l3 299 35 0c43 0 59 14 59 49 0 50-17 56-163 56l-132 0 0 55c0 67-25 112-72 132-50 21-228 18-270-4z m235-142l3-41-95 0-96 0 0 43 0 44 93-3 92-3 3-40z m193-431c0-273-1-286-19-296-11-5-116-9-273-9-224 0-257 2-272 16-16 14-17 36-17 295l0 279 290 0 291 0 0-285z m-480 121c-12-16-16-47-16-137 0-99 2-117 17-130 23-21 62-20 81 1 23 25 24 235 1 266-19 29-64 29-83 0z m306 11c-15-9-17-26-17-140 0-142 4-154 49-154 49 0 56 18 56 151 0 106-2 124-17 137-20 18-47 20-71 6z" horiz-adv-x="1000" />

<glyph glyph-name="inf-chat" unicode="&#xe816;" d="M73 809c-18-15-39-40-47-55-20-40-18-869 2-889 25-25 46-18 177 64l126 77 312 4c338 4 352 6 390 79 26 52 26 621-2 674-38 76-33 75-500 75-422 0-425 0-458-29z m857-91c30-29 30-557 0-585-16-18-64-20-321-20-270 0-306-3-340-23-20-12-64-39-98-57l-58-36 0 351c0 302 2 353 20 370 16 17 70 20 398 20 329 0 383-3 399-20z m-650-260c-4-10-5-32-2-48 2-22 11-29 40-29 45 0 70 34 50 67-18 27-78 35-88 10z m208-7c-20-38 5-78 46-73 42 5 65 40 46 70-20 32-75 35-92 3z m215 9c-37-36-4-90 50-82 23 2 28 11 28 47 0 38-5 44-31 48-17 2-39-4-47-13z" horiz-adv-x="1063" />

<glyph glyph-name="star-1" unicode="&#xe825;" d="M440 790l120-336 320 0-262-196 94-348-272 208-272-208 94 348-262 196 320 0z" horiz-adv-x="880" />

<glyph glyph-name="star-empty" unicode="&#xe826;" d="M880 454l-262-196 94-348-272 208-272-208 94 348-262 196 320 0 120 336 120-336 320 0z m-440-238l150-124-62 178 144 114-176-4-56 202-54-202-176 4 142-114-62-178z" horiz-adv-x="880" />
</font>
</defs>
</svg>
